<svg width="26" height="26" xmlns="http://www.w3.org/2000/svg" xmlns:xlink="http://www.w3.org/1999/xlink" xml:space="preserve" overflow="hidden"><g><path d="M10.6167 7.90833C10.8333 7.69167 10.9688 7.39375 10.9688 7.06875 10.9688 6.74375 10.8333 6.44583 10.6167 6.22917L6.87917 2.51875C6.6625 2.30208 6.36458 2.16667 6.06667 2.16667 5.76875 2.16667 5.44375 2.30208 5.22708 2.51875L4.82083 2.925 10.2104 8.31458 10.6167 7.90833Z" fill="#FFFFFF"/><path d="M16.0604 17.4688C15.9521 17.5771 15.7896 17.6313 15.6542 17.6313 15.5188 17.6313 15.3563 17.5771 15.2479 17.4688L8.53125 10.7792C8.42292 10.6708 8.36875 10.5083 8.36875 10.3729 8.36875 10.2375 8.42292 10.075 8.53125 9.96667L9.37083 9.15417 3.98125 3.76458C3.62917 4.11667 3.30417 4.44167 3.0875 4.65833 2.54583 5.17292 2.22083 5.85 2.19375 6.58125 2.1125 7.8 2.41042 8.96458 2.81667 10.1021 3.25 11.1042 3.81875 12.0521 4.44167 12.9458 6.6625 16.2771 9.45208 19.175 12.7021 21.4771 13.2438 21.8833 13.8125 22.2354 14.4083 22.5604 15.7625 23.2375 17.1979 23.725 18.7417 23.8333 19.7708 23.9146 20.8 23.5083 21.5042 22.75L22.2354 22.0188 16.8729 16.6292 16.0604 17.4688Z" fill="#FFFFFF"/><path d="M23.4813 19.1208 19.7438 15.3833C19.5271 15.1667 19.2292 15.0313 18.9042 15.0313 18.5792 15.0313 18.2812 15.1667 18.0646 15.3833L17.6583 15.8167 23.0479 21.2063 23.4542 20.8C23.6708 20.5833 23.8063 20.2854 23.8063 19.9604 23.8063 19.6354 23.6979 19.3375 23.4813 19.1208Z" fill="#FFFFFF"/></g></svg>