<svg width="25" height="25" xmlns="http://www.w3.org/2000/svg" xmlns:xlink="http://www.w3.org/1999/xlink" xml:space="preserve" overflow="hidden"><g><path d="M10.2083 7.60417C10.4167 7.39583 10.5469 7.10937 10.5469 6.79688 10.5469 6.48437 10.4167 6.19792 10.2083 5.98958L6.61458 2.42188C6.40625 2.21354 6.11979 2.08333 5.83333 2.08333 5.54687 2.08333 5.23438 2.21354 5.02604 2.42188L4.63542 2.8125 9.81771 7.99479 10.2083 7.60417Z"/><path d="M15.4427 16.7969C15.3385 16.901 15.1823 16.9531 15.0521 16.9531 14.9219 16.9531 14.7656 16.901 14.6615 16.7969L8.20312 10.3646C8.09896 10.2604 8.04688 10.1042 8.04688 9.97396 8.04688 9.84375 8.09896 9.6875 8.20312 9.58333L9.01042 8.80208 3.82812 3.61979C3.48958 3.95833 3.17708 4.27083 2.96875 4.47917 2.44792 4.97396 2.13542 5.625 2.10938 6.32812 2.03125 7.5 2.31771 8.61979 2.70833 9.71354 3.125 10.6771 3.67188 11.5885 4.27083 12.4479 6.40625 15.651 9.08854 18.4375 12.2135 20.651 12.7344 21.0417 13.2812 21.3802 13.8542 21.6927 15.1562 22.3438 16.5365 22.8125 18.0208 22.9167 19.0104 22.9948 20 22.6042 20.6771 21.875L21.3802 21.1719 16.224 15.9896 15.4427 16.7969Z"/><path d="M22.5781 18.3854 18.9844 14.7917C18.776 14.5833 18.4896 14.4531 18.1771 14.4531 17.8646 14.4531 17.5781 14.5833 17.3698 14.7917L16.9792 15.2083 22.1615 20.3906 22.5521 20C22.7604 19.7917 22.8906 19.5052 22.8906 19.1927 22.8906 18.8802 22.7865 18.5938 22.5781 18.3854Z"/></g></svg>
