<svg width="27" height="27" xmlns="http://www.w3.org/2000/svg" xmlns:xlink="http://www.w3.org/1999/xlink" xml:space="preserve" overflow="hidden"><g><path d="M23.0625 23.5125 17.4375 18.1687 23.0625 12.825 23.0625 23.5125ZM4.8375 24.1875 10.4062 18.9281 10.8 18.5625C12.3187 17.1281 14.7094 17.1281 16.2281 18.5625L16.6219 18.9281 22.1625 24.1875 4.8375 24.1875ZM3.9375 12.7969 9.5625 18.1406 3.9375 23.4844 3.9375 12.7969ZM7.875 5.625 19.125 5.625 19.125 14.9906 16.5938 17.4094C14.7656 16.0031 12.2344 16.0031 10.4062 17.4094L7.875 14.9906 7.875 5.625ZM20.8125 6.38438 20.8125 3.9375 16.875 3.9375 13.5 1.125 10.125 3.9375 6.1875 3.9375 6.1875 6.4125 2.25 10.1531 2.25 25.875 24.75 25.875 24.75 10.1531 20.8125 6.38438Z" transform="matrix(-1 1.22465e-16 1.22465e-16 1 27 -1.52776e-15)"/><path d="M13.5 11.8969C12.9938 11.8969 12.6 11.475 12.6 10.9969 12.6 10.4906 13.0219 10.0969 13.5 10.0969 14.0062 10.0969 14.4 10.4906 14.4 10.9969 14.4 11.5031 14.0062 11.8969 13.5 11.8969ZM13.5 14.625C14.1469 14.625 14.7656 14.4563 15.3281 14.175 15.5531 14.0344 15.6375 13.7531 15.525 13.5281 15.3844 13.3031 15.1031 13.2188 14.8781 13.3313 14.4563 13.5563 13.9781 13.6687 13.5 13.6687 12.0094 13.6687 10.7719 12.4313 10.8 10.9406 10.8 9.45 12.0375 8.2125 13.5281 8.2125 15.0188 8.2125 16.2563 9.42188 16.2563 10.9406L16.2563 11.8406C15.75 11.8406 15.3562 11.4469 15.3562 10.9406 15.3562 10.0406 14.7375 9.28125 13.8656 9.1125 12.9938 8.94375 12.1219 9.42188 11.8125 10.2375 11.5031 11.0531 11.8125 12.0094 12.5719 12.4594 13.3313 12.9094 14.3156 12.7688 14.9062 12.0938 15.2438 12.4875 15.75 12.7125 16.2844 12.7125 16.7906 12.7125 17.1844 12.3187 17.1844 11.8125L17.1844 10.9125C17.1844 8.8875 15.5531 7.25625 13.5281 7.25625 11.5031 7.25625 9.87187 8.8875 9.87187 10.9125 9.84375 12.9656 11.475 14.5969 13.5 14.625Z" transform="matrix(-1 1.22465e-16 1.22465e-16 1 27 -1.52776e-15)"/></g></svg>